<svg width="37" height="31" viewBox="0 0 37 31" fill="none" xmlns="http://www.w3.org/2000/svg">
<path d="M18.0241 0.101997C8.06979 0.101997 0 7.0478 0 15.6157C0 23.3001 6.49806 29.664 15.0181 30.8964V18.8523H10.6701V14.5181H15.0181V11.3222C15.0181 7.61409 17.6494 5.59338 21.4931 5.59338C23.3341 5.59338 24.9161 5.71145 25.3754 5.76346V9.63943L22.7095 9.64054C20.6195 9.64054 20.2166 10.4952 20.2166 11.7497V14.5158H25.2034L24.553 18.85H20.2166V31C29.1344 30.0658 36.0481 23.5397 36.0481 15.6112C36.0481 7.0478 27.9783 0.101997 18.0241 0.101997Z" fill="#92400E"/>
</svg>
