<svg width="53" height="29" viewBox="0 0 53 29" fill="none" xmlns="http://www.w3.org/2000/svg">
<path d="M52.427 25.4583L45.0659 13.8916L50.7054 5.18397C51.3692 4.16409 51.2171 3.02821 50.3759 2.65603C49.53 2.2911 48.2049 2.75028 47.4305 3.68557L42.4132 9.72992L38.9469 4.27527C38.2924 3.24572 36.8589 2.7092 35.7618 3.07655C34.6671 3.4439 34.1301 4.6837 34.5772 5.82925L38.6151 14.4257L32.8095 21.3111C32.0352 22.2488 31.9176 23.8656 32.5468 24.9072L33.9965 27.3168C34.6279 28.3632 35.6904 28.3801 36.3495 27.3579L41.224 19.8199L45.1811 27.4279C45.6259 28.5759 46.9211 29.2405 48.0597 28.9191L51.5513 27.921C52.6875 27.5923 53.0816 26.4854 52.427 25.4583Z" fill="#92400E"/>
<path d="M9.79953 23.6553C7.28051 23.6553 5.23855 19.9674 5.23855 15.4166C5.23855 10.8706 7.28051 7.18747 9.79953 7.18747C12.3186 7.18747 14.3605 10.8706 14.3605 15.4166C14.3605 19.9674 12.3186 23.6553 9.79953 23.6553ZM9.79953 3.30614C4.38582 3.30614 0 8.72695 0 15.4166C0 22.1086 4.38582 27.5318 9.79953 27.5318C15.2086 27.5318 19.5991 22.1086 19.5991 15.4166C19.5991 8.72695 15.2086 3.30614 9.79953 3.30614Z" fill="#92400E"/>
<path d="M22.5836 0.00483354C21.2239 -0.00483354 20.7583 1.17213 20.8413 2.37569L20.8436 17.9083C20.8874 19.368 21.5742 20.2646 23.1368 20.2888L31.3023 20.2936C32.5952 20.3178 33.2958 20.006 33.418 18.8919V16.1996C33.4018 14.955 32.1965 14.9598 31.3714 14.9792H28.0158C26.6837 14.9671 26.3772 14.7351 26.3242 13.3575L26.338 2.32493C26.3633 1.0368 25.937 0.00966709 24.5772 0L22.5836 0.00483354Z" fill="#92400E"/>
</svg>
